<svg xmlns="http://www.w3.org/2000/svg" xmlns:xlink="http://www.w3.org/1999/xlink" viewBox="0,0,256,256" width="50px" height="50px" fill-rule="nonzero"><g fill-opacity="0" fill="#ffffff" fill-rule="nonzero" stroke="none" stroke-width="1" stroke-linecap="butt" stroke-linejoin="miter" stroke-miterlimit="10" stroke-dasharray="" stroke-dashoffset="0" font-family="none" font-weight="none" font-size="none" text-anchor="none" style="mix-blend-mode: normal"><path d="M0,256v-256h256v256z" id="bgRectangle"></path></g><g fill="#000000" fill-rule="nonzero" stroke="none" stroke-width="1" stroke-linecap="butt" stroke-linejoin="miter" stroke-miterlimit="10" stroke-dasharray="" stroke-dashoffset="0" font-family="none" font-weight="none" font-size="none" text-anchor="none" style="mix-blend-mode: normal"><g transform="scale(5.12,5.12)"><path d="M8.5957,17l-8.5957,16h18.4043l8.5957,-16zM27,17v15.69336h2.37305v-1.56055h0.04297c0.748,1.495 2.39755,1.86719 3.93555,1.86719c3.364,0 4.90234,-2.87959 4.90234,-5.93359c0,-3.319 -1.73831,-6.04492 -5.32031,-6.04492c-1.275,0 -2.70377,0.68225 -3.38477,1.78125h-0.04297v-5.80273zM44.87891,21.02148c-3.737,0 -5.60547,2.68333 -5.60547,6.11133c0,3.341 1.95658,5.86719 5.51758,5.86719c2.923,0 4.74698,-1.62727 5.20898,-4.57227h-2.50586c-0.243,1.627 -1.25312,2.5957 -2.70312,2.5957c-2.176,0 -3.01172,-2.00062 -3.01172,-3.89063c0,-3.45 1.82409,-4.13281 3.12109,-4.13281c1.385,0 2.39575,0.74881 2.59375,2.13281h0.00391h2.50195c-0.241,-2.791 -2.48409,-4.11133 -5.12109,-4.11133zM32.60547,23c2.064,0 3.14158,1.95548 3.14258,4.02148c0,1.978 -0.85658,4 -3.14258,4c-2.022,0 -3.1875,-1.715 -3.1875,-4c0,-2.417 1.0785,-4.02148 3.1875,-4.02148z"></path></g></g></svg>